<?xml version="1.0" encoding="UTF-8"?>
<svg width="20px" height="20px" viewBox="0 0 20 20" version="1.1" xmlns="http://www.w3.org/2000/svg" xmlns:xlink="http://www.w3.org/1999/xlink">
    <g id="Page-1" stroke="none" stroke-width="1" fill="none" fill-rule="evenodd">
        <g id="ic24-arrow-circle-right" fill="currentColor" fill-rule="nonzero">
            <path d="M0,10 C0,4.4771525 4.4771525,0 10,0 C15.5228475,0 20,4.4771525 20,10 C20,15.5228475 15.5228475,20 10,20 C4.4771525,20 0,15.5228475 0,10 Z M2,10 C2,14.418278 5.581722,18 10,18 C14.418278,18 18,14.418278 18,10 C18,5.581722 14.418278,2 10,2 C5.581722,2 2,5.581722 2,10 Z M4,10 C4,9.4477153 4.44771525,9 5,9 L12.586,9 L11.2928932,7.70710678 C10.9624496,7.37666315 10.9116121,6.87249453 11.1403808,6.48859705 L11.2097046,6.38710056 L11.2928932,6.29289322 C11.6533772,5.93240926 12.2206082,5.90467972 12.6128994,6.20970461 L12.7071068,6.29289322 L15.7071068,9.2928932 L15.7485042,9.336853 L15.8036654,9.4046934 L15.8753288,9.5159379 L15.9287745,9.628664 L15.9641549,9.734007 L15.9930928,9.8819045 L16,10 L15.9972121,10.0752385 L15.9797599,10.2007258 L15.9502619,10.3121425 L15.9063266,10.4232215 L15.8540045,10.5207088 L15.7803112,10.625449 L15.7071068,10.7071068 L12.7071068,13.7071068 C12.3165825,14.0976311 11.6834175,14.0976311 11.2928932,13.7071068 C10.9324093,13.3466228 10.9046797,12.7793918 11.2097046,12.3871006 L11.2928932,12.2928932 L12.584,11 L5,11 C4.44771525,11 4,10.5522847 4,10 Z" id="Shape"></path>
        </g>
    </g>
</svg>