<?xml version="1.0" encoding="UTF-8"?>
<svg width="20px" height="20px" viewBox="0 0 20 20" version="1.1" xmlns="http://www.w3.org/2000/svg" xmlns:xlink="http://www.w3.org/1999/xlink">
    <g id="Page-1" stroke="none" stroke-width="1" fill="none" fill-rule="evenodd">
        <g id="ic24-arrow-circle-left" fill="currentColor" fill-rule="nonzero">
            <path d="M20,10 C20,4.4771525 15.5228475,0 10,0 C4.4771525,0 0,4.4771525 0,10 C0,15.5228475 4.4771525,20 10,20 C15.5228475,20 20,15.5228475 20,10 Z M18,10 C18,14.418278 14.418278,18 10,18 C5.581722,18 2,14.418278 2,10 C2,5.581722 5.581722,2 10,2 C14.418278,2 18,5.581722 18,10 Z M16,10 C16,9.4477153 15.5522847,9 15,9 L7.414,9 L8.7071068,7.70710678 C9.0375504,7.37666315 9.0883879,6.87249453 8.8596192,6.48859705 L8.7902954,6.38710056 L8.7071068,6.29289322 C8.3466228,5.93240926 7.77939176,5.90467972 7.38710056,6.20970461 L7.29289322,6.29289322 L4.29289322,9.2928932 L4.2514958,9.336853 L4.19633458,9.4046934 L4.12467117,9.5159379 L4.07122549,9.628664 L4.03584514,9.734007 L4.00690716,9.8819045 L4,10 L4.00278786,10.0752385 L4.02024007,10.2007258 L4.04973809,10.3121425 L4.09367336,10.4232215 L4.14599545,10.5207088 L4.21968877,10.625449 L4.29289322,10.7071068 L7.29289322,13.7071068 C7.68341751,14.0976311 8.3165825,14.0976311 8.7071068,13.7071068 C9.0675907,13.3466228 9.0953203,12.7793918 8.7902954,12.3871006 L8.7071068,12.2928932 L7.416,11 L15,11 C15.5522847,11 16,10.5522847 16,10 Z" id="Shape"></path>
        </g>
    </g>
</svg>