<?xml version="1.0" encoding="UTF-8"?>
<svg width="36px" height="36px" viewBox="0 0 36 36" version="1.1" xmlns="http://www.w3.org/2000/svg" xmlns:xlink="http://www.w3.org/1999/xlink">
    <g id="Page-1" stroke="none" stroke-width="1" fill="none" fill-rule="evenodd">
        <g id="ic24-phone-in-talk-copy" fill="currentColor" fill-rule="nonzero">
            <path d="M15.5547002,15.8320503 C15.8328989,15.6465845 16,15.3343532 16,15 L16,11 C16,9.34314575 14.6568543,8 13,8 L9,8 C8.44771525,8 8,8.44771525 8,9 C8,18.9411255 17.0588745,28 27,28 C27.5522847,28 28,27.5522847 28,27 L28,23 C28,21.3431458 26.6568542,20 25,20 L21,20 C20.6656468,20 20.3534155,20.1671011 20.1679497,20.4452998 L18.2626046,23.3033175 C16.187391,21.961484 14.369248,20.1891773 12.9707407,18.1489624 L12.6966825,17.7373954 L15.5547002,15.8320503 Z M21.5351838,22 L25,22 C25.5522847,22 26,22.4477153 26,23 L26,25.9653271 C24.0627576,25.8312776 22.1721397,25.3131585 20.4087453,24.4915688 L20.0041032,24.2966209 L21.5351838,22 Z M20,12 C22.209139,12 24,13.790861 24,16 C24,16.5522847 23.5522847,17 23,17 C22.4871642,17 22.0644928,16.6139598 22.0067277,16.1166211 L21.9945143,15.8507377 C21.9181651,14.8158778 21.0543618,14 20,14 C19.4477153,14 19,13.5522848 19,13 C19,12.4477152 19.4477153,12 20,12 Z M20,8 C24.418278,8 28,11.581722 28,16 C28,16.5522847 27.5522847,17 27,17 C26.4477153,17 26,16.5522847 26,16 C26,12.6862915 23.3137085,10 20,10 C19.4477153,10 19,9.55228475 19,9 C19,8.44771525 19.4477153,8 20,8 Z M13,10 C13.5522848,10 14,10.4477152 14,11 L14,14.4648162 L11.7033791,15.9958968 C10.7688248,14.1184487 10.1790339,12.086261 10.0346729,10 L13,10 Z" id="Shape"></path>
            <path d="M18,0 C27.9411255,0 36,8.0588745 36,18 C36,27.9411255 27.9411255,36 18,36 C8.0588745,36 0,27.9411255 0,18 C0,8.0588745 8.0588745,0 18,0 Z M18,3 C9.71572875,3 3,9.71572875 3,18 C3,26.2842712 9.71572875,33 18,33 C26.2842712,33 33,26.2842712 33,18 C33,9.71572875 26.2842712,3 18,3 Z" id="Combined-Shape-Copy"></path>
        </g>
    </g>
</svg>