<?xml version="1.0" encoding="UTF-8"?>
<svg width="20px" height="20px" viewBox="0 0 20 20" version="1.1" xmlns="http://www.w3.org/2000/svg" xmlns:xlink="http://www.w3.org/1999/xlink">
    <g id="Page-1" stroke="none" stroke-width="1" fill="none" fill-rule="evenodd">
        <g id="ic24-fullscreen" fill="currentColor" fill-rule="nonzero">
            <path d="M1,13 L1.11662113,13.0067277 C1.57570299,13.0600494 1.93995063,13.424297 1.99327227,13.8833789 L2,14 L2,18 L6,18 L6.11662113,18.0067277 C6.61395981,18.0644928 7,18.4871642 7,19 C7,19.5128358 6.61395981,19.9355072 6.11662113,19.9932723 L6,20 L1,20 L0.88337887,19.9932723 C0.42429701,19.9399506 0.06004937,19.575703 0.00672773,19.1166211 L0,19 L0,14 L0.00672773,13.8833789 C0.06004937,13.424297 0.42429701,13.0600494 0.88337887,13.0067277 L1,13 Z M19,13 C19.5128358,13 19.9355072,13.3860402 19.9932723,13.8833789 L20,14 L20,19 C20,19.5128358 19.6139598,19.9355072 19.1166211,19.9932723 L19,20 L14,20 C13.4477153,20 13,19.5522847 13,19 C13,18.4871642 13.3860402,18.0644928 13.8833789,18.0067277 L14,18 L18,18 L18,14 C18,13.4871642 18.3860402,13.0644928 18.8833789,13.0067277 L19,13 Z M6,0 C6.55228475,0 7,0.44771525 7,1 C7,1.51283584 6.61395981,1.93550716 6.11662113,1.99327227 L6,2 L2,2 L2,6 C2,6.51283584 1.61395981,6.93550716 1.11662113,6.99327227 L1,7 C0.48716416,7 0.06449284,6.61395981 0.00672773,6.11662113 L0,6 L0,1 C0,0.48716416 0.38604019,0.06449284 0.88337887,0.00672773 L1,0 L6,0 Z M19,0 L19.1166211,0.00672773 C19.575703,0.06004937 19.9399506,0.42429701 19.9932723,0.88337887 L20,1 L20,6 L19.9932723,6.11662113 C19.9399506,6.57570299 19.575703,6.93995063 19.1166211,6.99327227 L19,7 L18.8833789,6.99327227 C18.424297,6.93995063 18.0600494,6.57570299 18.0067277,6.11662113 L18,6 L18,2 L14,2 L13.8833789,1.99327227 C13.3860402,1.93550716 13,1.51283584 13,1 C13,0.48716416 13.3860402,0.06449284 13.8833789,0.00672773 L14,0 L19,0 Z" id="Shape"></path>
        </g>
    </g>
</svg>