<?xml version="1.0" encoding="UTF-8"?>
<svg width="20px" height="20px" viewBox="0 0 20 20" version="1.1" xmlns="http://www.w3.org/2000/svg" xmlns:xlink="http://www.w3.org/1999/xlink">
    <g id="Page-1" stroke="none" stroke-width="1" fill="none" fill-rule="evenodd">
        <g id="ic24-fullscreen-exit" fill="currentColor" fill-rule="nonzero">
            <path d="M19,13 C19.5522847,13 20,13.4477153 20,14 C20,14.5128358 19.6139598,14.9355072 19.1166211,14.9932723 L19,15 L15,15 L15,19 C15,19.5128358 14.6139598,19.9355072 14.1166211,19.9932723 L14,20 C13.4871642,20 13.0644928,19.6139598 13.0067277,19.1166211 L13,19 L13,14 C13,13.4871642 13.3860402,13.0644928 13.8833789,13.0067277 L14,13 L19,13 Z M6,13 L6.11662113,13.0067277 C6.57570299,13.0600494 6.93995063,13.424297 6.99327227,13.8833789 L7,14 L7,19 L6.99327227,19.1166211 C6.93995063,19.575703 6.57570299,19.9399506 6.11662113,19.9932723 L6,20 L5.88337887,19.9932723 C5.42429701,19.9399506 5.06004937,19.575703 5.00672773,19.1166211 L5,19 L5,15 L1,15 L0.88337887,14.9932723 C0.38604019,14.9355072 0,14.5128358 0,14 C0,13.4871642 0.38604019,13.0644928 0.88337887,13.0067277 L1,13 L6,13 Z M14,0 L14.1166211,0.00672773 C14.575703,0.06004937 14.9399506,0.42429701 14.9932723,0.88337887 L15,1 L15,5 L19,5 L19.1166211,5.00672773 C19.6139598,5.06449284 20,5.48716416 20,6 C20,6.51283584 19.6139598,6.93550716 19.1166211,6.99327227 L19,7 L14,7 L13.8833789,6.99327227 C13.424297,6.93995063 13.0600494,6.57570299 13.0067277,6.11662113 L13,6 L13,1 L13.0067277,0.88337887 C13.0600494,0.42429701 13.424297,0.06004937 13.8833789,0.00672773 L14,0 Z M6,0 C6.51283584,0 6.93550716,0.38604019 6.99327227,0.88337887 L7,1 L7,6 C7,6.51283584 6.61395981,6.93550716 6.11662113,6.99327227 L6,7 L1,7 C0.44771525,7 0,6.55228475 0,6 C0,5.48716416 0.38604019,5.06449284 0.88337887,5.00672773 L1,5 L5,5 L5,1 C5,0.48716416 5.38604019,0.06449284 5.88337887,0.00672773 L6,0 Z" id="Shape"></path>
        </g>
    </g>
</svg>