<?xml version="1.0" encoding="UTF-8"?>
<svg width="22px" height="22px" viewBox="0 0 22 22" version="1.1" xmlns="http://www.w3.org/2000/svg" xmlns:xlink="http://www.w3.org/1999/xlink">
    <g id="Page-1" stroke="none" stroke-width="1" fill="none" fill-rule="evenodd">
        <g id="ic24-lock" transform="translate(3.000000, 1.000000)" fill="currentColor" fill-rule="nonzero">
            <path d="M8,0 C10.6887547,0 12.8818181,2.12230671 12.9953805,4.78311038 L13,5 L13,8 C14.6568542,8 16,9.3431458 16,11 L16,17 C16,18.6568542 14.6568542,20 13,20 L3,20 C1.34314575,20 0,18.6568542 0,17 L0,11 C0,9.3431458 1.34314575,8 3,8 L3,5 C3,2.23857625 5.23857625,0 8,0 Z M13,10 L3,10 C2.44771525,10 2,10.4477153 2,11 L2,17 C2,17.5522847 2.44771525,18 3,18 L13,18 C13.5522847,18 14,17.5522847 14,17 L14,11 C14,10.4477153 13.5522847,10 13,10 Z M8.1762728,2.00509269 L8,2 C6.4023191,2 5.09633912,3.24891996 5.00509269,4.82372721 L5,5 L5,8 L11,8 L11,5 C11,3.40231912 9.75108,2.09633912 8.1762728,2.00509269 L8,2 L8.1762728,2.00509269 Z" id="Shape"></path>
        </g>
    </g>
</svg>