<?xml version="1.0" encoding="UTF-8"?>
<svg width="20px" height="20px" viewBox="0 0 20 20" version="1.1" xmlns="http://www.w3.org/2000/svg" xmlns:xlink="http://www.w3.org/1999/xlink">
    <g id="Page-1" stroke="none" stroke-width="1" fill="none" fill-rule="evenodd">
        <g id="ic24-globe" fill="currentColor" fill-rule="nonzero">
            <path d="M10,0 C15.5228475,0 20,4.4771525 20,10 C20,15.5228475 15.5228475,20 10,20 C4.4771525,20 0,15.5228475 0,10 C0,4.4771525 4.4771525,0 10,0 Z M12.9724446,11.0007836 L7.02755536,11.0007836 C7.13849511,13.0042801 7.57913632,14.8282723 8.2533205,16.1766406 C8.8812109,17.4324214 9.5521641,18 10,18 C10.4478359,18 11.1187891,17.4324214 11.7466795,16.1766406 C12.4208637,14.8282723 12.8615049,13.0042801 12.9724446,11.0007836 Z M17.9379838,11.0009882 L14.9752499,11.0012571 C14.8542687,13.4351666 14.2969444,15.6122807 13.4619572,17.215239 C15.860144,16.0615985 17.595159,13.7475008 17.9379838,11.0009882 Z M5.02475108,11.0012558 L2.06201693,11.0009873 C2.4048478,13.7474921 4.13991984,16.0615163 6.53864169,17.2144687 C5.75534668,15.7123314 5.21649966,13.7050397 5.05251187,11.4545242 L5.02475108,11.0012558 L5.02475108,11.0012558 Z M6.5380428,2.78476098 L6.51188764,2.79845221 C4.1267876,3.9558286 2.4032296,6.26318769 2.06191521,8.9998279 L5.02470024,8.9997459 C5.14557822,6.56543155 5.70294094,4.3879395 6.5380428,2.78476098 Z M10,2 L9.9187082,2.00591637 C9.4733774,2.06915527 8.8442762,2.64144802 8.2533205,3.82335938 C7.57902397,5.17195239 7.13834826,6.99632785 7.02749992,9.000218 L12.9725001,9.000218 C12.8616517,6.99632785 12.420976,5.17195239 11.7466795,3.82335938 C11.1187891,2.56757856 10.4478359,2 10,2 Z M13.4613583,2.78553132 L13.4839504,2.82723968 C14.3069189,4.42645639 14.8555915,6.58727973 14.9753343,9.0004417 L17.9381081,9.0000145 C17.5955741,6.25307062 15.8603718,3.93862384 13.4613583,2.78553132 Z" id="Shape"></path>
        </g>
    </g>
</svg>