<?xml version="1.0" encoding="UTF-8"?>
<svg width="20px" height="20px" viewBox="0 0 20 20" version="1.1" xmlns="http://www.w3.org/2000/svg" xmlns:xlink="http://www.w3.org/1999/xlink">
    <title>ic24-view-table</title>
    <g id="Page-1" stroke="none" stroke-width="1" fill="none" fill-rule="evenodd">
        <g id="ic24-view-table" fill="currentColor" fill-rule="nonzero">
            <path d="M3,20 C1.34314575,20 0,18.6568542 0,17 L0,3 C0,1.34314575 1.34314575,0 3,0 L17,0 C18.6568542,0 20,1.34314575 20,3 L20,17 C20,18.6568542 18.6568542,20 17,20 L3,20 Z M6,11 L2,11 L2,17 C2,17.5522847 2.44771525,18 3,18 L6,18 L6,11 Z M12,11 L8,11 L8,18 L12,18 L12,11 Z M18,11 L14,11 L14,18 L17,18 C17.5522847,18 18,17.5522847 18,17 L18,11 Z M6,2 L3,2 C2.44771525,2 2,2.44771525 2,3 L2,9 L6,9 L6,2 Z M12,2 L8,2 L8,9 L12,9 L12,2 Z M17,2 L14,2 L14,9 L18,9 L18,3 C18,2.44771525 17.5522847,2 17,2 Z" id="Shape"></path>
        </g>
    </g>
</svg>