<?xml version="1.0" encoding="UTF-8"?>
<svg width="16px" height="18px" viewBox="0 0 16 18" version="1.1" xmlns="http://www.w3.org/2000/svg" xmlns:xlink="http://www.w3.org/1999/xlink">
    <g id="Page-1" stroke="none" stroke-width="1" fill="none" fill-rule="evenodd">
        <g id="ic24-refresh" fill="currentColor" fill-rule="nonzero">
            <path d="M4.29289322,2.29289322 L6.2928932,0.29289322 C6.6834175,-0.09763107 7.3165825,-0.09763107 7.7071068,0.29289322 C8.0675907,0.65337718 8.0953203,1.22060824 7.7902954,1.61289944 L7.7071068,1.70710678 L7.3891629,2.0230186 C7.5916051,2.00770767 7.7953244,2 8,2 C12.418278,2 16,5.581722 16,10 C16,14.418278 12.418278,18 8,18 C3.581722,18 0,14.418278 0,10 C0,9.4477153 0.44771525,9 1,9 C1.55228475,9 2,9.4477153 2,10 C2,13.3137085 4.6862915,16 8,16 C11.3137085,16 14,13.3137085 14,10 C14,6.6862915 11.3137085,4 8,4 C7.8129339,4 7.6271216,4.00853145 7.4429483,4.02544919 L7.7071068,4.29289322 C8.0976311,4.68341751 8.0976311,5.31658249 7.7071068,5.70710678 C7.3466228,6.06759074 6.7793918,6.09532028 6.3871006,5.79029539 L6.2928932,5.70710678 L4.29289322,3.70710678 C3.93240926,3.34662282 3.90467972,2.77939176 4.20970461,2.38710056 L4.29289322,2.29289322 L6.2928932,0.29289322 L4.29289322,2.29289322 Z" id="Path"></path>
        </g>
    </g>
</svg>