<?xml version="1.0" encoding="UTF-8"?>
<svg width="34px" height="34px" viewBox="0 0 34 34" version="1.1" xmlns="http://www.w3.org/2000/svg" xmlns:xlink="http://www.w3.org/1999/xlink">
    <g id="Page-1" stroke="none" stroke-width="1" fill="none" fill-rule="evenodd">
        <g id="starmap" fill="currentColor" fill-rule="nonzero">
            <path d="M17,0 C26.3888407,0 34,7.61115925 34,17 C34,26.3888407 26.3888407,34 17,34 C7.61115925,34 0,26.3888407 0,17 C0,7.61115925 7.61115925,0 17,0 Z M17,3.1875 C9.2680135,3.1875 3,9.37156689 3,17 C3,24.6284331 9.2680135,30.8125 17,30.8125 C24.7319865,30.8125 31,24.6284331 31,17 C31,9.37156689 24.7319865,3.1875 17,3.1875 Z" id="Combined-Shape"></path>
            <g id="left" transform="translate(8.500000, 4.000000)">
                <path d="M3.91580108,0 C4.46808578,0 4.91580108,0.32235498 4.91580108,0.72 L4.91580108,6.48 C4.91580108,6.87764498 4.46808578,7.2 3.91580108,7.2 C3.36351638,7.2 2.91580108,6.87764498 2.91580108,6.48 L2.91580108,0.72 C2.91580108,0.32235498 3.36351638,0 3.91580108,0 Z" id="Path" transform="translate(3.915801, 3.600000) rotate(40.000000) translate(-3.915801, -3.600000) "></path>
                <path d="M2,5 C2.5522847,5 3,5.31340067 3,5.7 L3,11.3 C3,11.6865993 2.5522847,12 2,12 C1.4477153,12 1,11.6865993 1,11.3 L1,5.7 C1,5.31340067 1.4477153,5 2,5 Z" id="Path-Copy"></path>
                <path d="M5.7,1 C6.2522847,1 6.7,1.31340068 6.7,1.7 L6.7,7.3 C6.7,7.68659929 6.2522847,8 5.7,8 C5.1477153,8 4.7,7.68659929 4.7,7.3 L4.7,1.7 C4.7,1.31340068 5.1477153,1 5.7,1 Z" id="Path-Copy-12"></path>
                <path d="M3.94794046,9.92394316 C4.50022516,9.92394316 4.94794046,10.241821 4.94794046,10.6339432 L4.94794046,16.3139432 C4.94794046,16.7060653 4.50022516,17.0239432 3.94794046,17.0239432 C3.39565576,17.0239432 2.94794046,16.7060653 2.94794046,16.3139432 L2.94794046,10.6339432 C2.94794046,10.241821 3.39565576,9.92394316 3.94794046,9.92394316 Z" id="Path-Copy-2" transform="translate(3.947940, 13.473943) rotate(-40.000000) translate(-3.947940, -13.473943) "></path>
                <path d="M5.7,14.8 C6.2522847,14.8 6.7,15.270101 6.7,15.85 L6.7,24.25 C6.7,24.8298989 6.2522847,25.3 5.7,25.3 C5.1477153,25.3 4.7,24.8298989 4.7,24.25 L4.7,15.85 C4.7,15.270101 5.1477153,14.8 5.7,14.8 Z" id="Path-Copy-3"></path>
                <path d="M3.93007984,19 C4.48236454,19 4.93007984,19.322355 4.93007984,19.72 L4.93007984,25.48 C4.93007984,25.877645 4.48236454,26.2 3.93007984,26.2 C3.37779514,26.2 2.93007984,25.877645 2.93007984,25.48 L2.93007984,19.72 C2.93007984,19.322355 3.37779514,19 3.93007984,19 Z" id="Path-Copy-4" transform="translate(3.930080, 22.600000) rotate(-40.000000) translate(-3.930080, -22.600000) "></path>
                <path d="M2.1,16 C2.6522847,16 3.1,16.2238576 3.1,16.5 L3.1,20.5 C3.1,20.7761423 2.6522847,21 2.1,21 C1.5477153,21 1.1,20.7761423 1.1,20.5 L1.1,16.5 C1.1,16.2238576 1.5477153,16 2.1,16 Z" id="Path-Copy-5"></path>
            </g>
            <g id="right" transform="translate(17.600000, 4.000000)">
                <path d="M2,14.8 C2.5522847,14.8 3,15.270101 3,15.85 L3,24.25 C3,24.8298989 2.5522847,25.3 2,25.3 C1.4477153,25.3 1,24.8298989 1,24.25 L1,15.85 C1,15.270101 1.4477153,14.8 2,14.8 Z" id="Path-Copy-8"></path>
                <path d="M3.81580108,-1.13686838e-13 C4.36808578,-1.13686838e-13 4.81580108,0.32235498 4.81580108,0.72 L4.81580108,6.48 C4.81580108,6.87764498 4.36808578,7.2 3.81580108,7.2 C3.26351638,7.2 2.81580108,6.87764498 2.81580108,6.48 L2.81580108,0.72 C2.81580108,0.32235498 3.26351638,-1.13686838e-13 3.81580108,-1.13686838e-13 Z" id="Path-Copy-11" transform="translate(3.815801, 3.600000) rotate(-40.000000) translate(-3.815801, -3.600000) "></path>
                <path d="M2,1 C2.5522847,1 3,1.31340067 3,1.7 L3,7.3 C3,7.68659929 2.5522847,8 2,8 C1.4477153,8 1,7.68659929 1,7.3 L1,1.7 C1,1.31340067 1.4477153,1 2,1 Z" id="Path-Copy-13"></path>
                <path d="M3.9,10 C4.4522847,10 4.9,10.3134007 4.9,10.7 L4.9,16.3 C4.9,16.6865993 4.4522847,17 3.9,17 C3.3477153,17 2.9,16.6865993 2.9,16.3 L2.9,10.7 C2.9,10.3134007 3.3477153,10 3.9,10 Z" id="Path-Copy-9" transform="translate(3.900000, 13.500000) rotate(40.000000) translate(-3.900000, -13.500000) "></path>
                <path d="M3.9,19 C4.4522847,19 4.9,19.322355 4.9,19.72 L4.9,25.48 C4.9,25.877645 4.4522847,26.2 3.9,26.2 C3.3477153,26.2 2.9,25.877645 2.9,25.48 L2.9,19.72 C2.9,19.322355 3.3477153,19 3.9,19 Z" id="Path-Copy-7" transform="translate(3.900000, 22.600000) rotate(40.000000) translate(-3.900000, -22.600000) "></path>
                <path d="M5.8,16 C6.3522847,16 6.8,16.2238576 6.8,16.5 L6.8,20.5 C6.8,20.7761423 6.3522847,21 5.8,21 C5.2477153,21 4.8,20.7761423 4.8,20.5 L4.8,16.5 C4.8,16.2238576 5.2477153,16 5.8,16 Z" id="Path-Copy-6"></path>
                <path d="M5.6,5 C6.1522847,5 6.6,5.31340067 6.6,5.7 L6.6,11.3 C6.6,11.6865993 6.1522847,12 5.6,12 C5.0477153,12 4.6,11.6865993 4.6,11.3 L4.6,5.7 C4.6,5.31340067 5.0477153,5 5.6,5 Z" id="Path-Copy-10" transform="translate(5.600000, 8.500000) scale(1, -1) translate(-5.600000, -8.500000) "></path>
            </g>
            <g id="star" transform="translate(13.100000, 10.018953)">
                <path d="M3.83031358,0.981047206 C3.83031358,0.981047206 4.34761833,4.2940583 4.34761833,4.68065763 C4.0027485,6.88091735 3.83031358,7.98104721 3.83031358,7.98104721 C3.83031358,7.98104721 3.34761833,4.68065763 3.34761833,4.68065763 C3.66941517,2.21425068 3.83031358,0.981047206 3.83031358,0.981047206 Z" id="Path-Copy-14"></path>
                <path d="M3.83031358,0.981047206 C3.83031358,0.981047206 4.34761833,4.2940583 4.34761833,4.68065763 C4.0027485,6.88091735 3.83031358,7.98104721 3.83031358,7.98104721 C3.83031358,7.98104721 3.34761833,4.68065763 3.34761833,4.68065763 C3.66941517,2.21425068 3.83031358,0.981047206 3.83031358,0.981047206 Z" id="Path-Copy-15" transform="translate(3.847618, 4.481047) rotate(90.000000) translate(-3.847618, -4.481047) "></path>
            </g>
        </g>
    </g>
</svg>