<?xml version="1.0" encoding="UTF-8"?>
<svg width="68px" height="68px" viewBox="0 0 68 68" version="1.1" xmlns="http://www.w3.org/2000/svg" xmlns:xlink="http://www.w3.org/1999/xlink">
    <g id="Page-1" stroke="none" stroke-width="1" fill="none" fill-rule="evenodd">
        <g id="starmap-new" fill="currentColor">
            <g id="left" transform="translate(18.000000, 9.000000)" stroke="currentColor" stroke-linecap="round">
                <line x1="12.5" y1="0.5" x2="0.5" y2="12.5" id="Line"></line>
                <line x1="12.5" y1="0.5" x2="12.5" y2="13.5" id="Line-2"></line>
                <line x1="12.5" y1="13.5" x2="6.5" y2="19.5" id="Line-3"></line>
                <line x1="0.5" y1="12.5" x2="0.5" y2="24.5" id="Line-4"></line>
                <line x1="0.5" y1="24.5" x2="12.5" y2="36.5" id="Line-5"></line>
                <line x1="12.5" y1="36.5" x2="12.5" y2="49.5" id="Line-6"></line>
                <line x1="12.5" y1="49.5" x2="0.5" y2="37.5" id="Line-7"></line>
                <line x1="0.5" y1="37.5" x2="0.5" y2="32.5" id="Line-8"></line>
            </g>
            <g id="right" transform="translate(43.500000, 34.000000) scale(-1, 1) translate(-43.500000, -34.000000) translate(37.000000, 9.000000)" stroke="currentColor" stroke-linecap="round">
                <line x1="12.5" y1="0.5" x2="0.5" y2="12.5" id="Line"></line>
                <line x1="12.5" y1="0.5" x2="12.5" y2="13.5" id="Line-2"></line>
                <line x1="12.5" y1="13.5" x2="6.5" y2="19.5" id="Line-3"></line>
                <line x1="0.5" y1="12.5" x2="0.5" y2="24.5" id="Line-4"></line>
                <line x1="0.5" y1="24.5" x2="12.5" y2="36.5" id="Line-5"></line>
                <line x1="12.5" y1="36.5" x2="12.5" y2="49.5" id="Line-6"></line>
                <line x1="12.5" y1="49.5" x2="0.5" y2="37.5" id="Line-7"></line>
                <line x1="0.5" y1="37.5" x2="0.5" y2="32.5" id="Line-8"></line>
            </g>
            <g id="star-copy" transform="translate(24.470000, 22.800000)" fill-rule="nonzero">
                <path d="M9.57578396,2.45261801 C9.57578396,2.45261801 10.8690458,10.7351458 10.8690458,11.7016441 C10.0068712,17.2022934 9.57578396,19.952618 9.57578396,19.952618 C9.57578396,19.952618 8.36904583,11.7016441 8.36904583,11.7016441 C9.17353792,5.5356267 9.57578396,2.45261801 9.57578396,2.45261801 Z" id="Path-Copy-14"></path>
                <path d="M9.57578396,2.45261801 C9.57578396,2.45261801 10.8690458,10.7351458 10.8690458,11.7016441 C10.0068712,17.2022934 9.57578396,19.952618 9.57578396,19.952618 C9.57578396,19.952618 8.36904583,11.7016441 8.36904583,11.7016441 C9.17353792,5.5356267 9.57578396,2.45261801 9.57578396,2.45261801 Z" id="Path-Copy-15" transform="translate(9.619046, 11.202618) rotate(90.000000) translate(-9.619046, -11.202618) "></path>
            </g>
            <path d="M34,0 C52.7776815,0 68,15.2223185 68,34 C68,52.7776815 52.7776815,68 34,68 C15.2223185,68 0,52.7776815 0,34 C0,15.2223185 15.2223185,0 34,0 Z M34,6 C18.536027,6 6,18.536027 6,34 C6,49.463973 18.536027,62 34,62 C49.463973,62 62,49.463973 62,34 C62,18.536027 49.463973,6 34,6 Z" id="Combined-Shape-Copy-2" fill-rule="nonzero"></path>
        </g>
    </g>
</svg>