<?xml version="1.0" encoding="UTF-8"?>
<svg width="20px" height="20px" viewBox="0 0 20 20" version="1.1" xmlns="http://www.w3.org/2000/svg" xmlns:xlink="http://www.w3.org/1999/xlink">
    <g id="Page-1" stroke="none" stroke-width="1" fill="none" fill-rule="evenodd">
        <g id="ic24-phone-in-talk" fill="currentColor" fill-rule="nonzero">
            <path d="M7.5547002,7.83205029 C7.83289886,7.64658452 8,7.33435319 8,7 L8,3 C8,1.34314575 6.65685425,0 5,0 L1,0 C0.44771525,0 0,0.44771525 0,1 C0,10.9411255 9.0588745,20 19,20 C19.5522847,20 20,19.5522847 20,19 L20,15 C20,13.3431458 18.6568542,12 17,12 L13,12 C12.6656468,12 12.3534155,12.1671011 12.1679497,12.4452998 L10.2626046,15.3033175 C8.187391,13.961484 6.36924805,12.1891773 4.97074067,10.1489624 L4.6966825,9.7373954 L7.5547002,7.83205029 Z M13.5351838,14 L17,14 C17.5522847,14 18,14.4477153 18,15 L18,17.9653271 C16.0627576,17.8312776 14.1721397,17.3131585 12.4087453,16.4915688 L12.0041032,16.2966209 L13.5351838,14 Z M12,4 C14.209139,4 16,5.790861 16,8 C16,8.5522847 15.5522847,9 15,9 C14.4871642,9 14.0644928,8.6139598 14.0067277,8.1166211 L13.9945143,7.85073766 C13.9181651,6.81587779 13.0543618,6 12,6 C11.4477153,6 11,5.55228475 11,5 C11,4.44771525 11.4477153,4 12,4 Z M12,0 C16.418278,0 20,3.581722 20,8 C20,8.5522847 19.5522847,9 19,9 C18.4477153,9 18,8.5522847 18,8 C18,4.6862915 15.3137085,2 12,2 C11.4477153,2 11,1.55228475 11,1 C11,0.44771525 11.4477153,0 12,0 Z M5,2 C5.55228475,2 6,2.44771525 6,3 L6,6.46481624 L3.70337914,7.99589681 C2.76882476,6.11844872 2.17903392,4.08626103 2.03467288,2 L5,2 Z" id="Shape"></path>
        </g>
    </g>
</svg>