<?xml version="1.0" encoding="UTF-8"?>
<svg width="22px" height="22px" viewBox="0 0 22 22" version="1.1" xmlns="http://www.w3.org/2000/svg" xmlns:xlink="http://www.w3.org/1999/xlink">
    <g id="Page-1" stroke="none" stroke-width="1" fill="none" fill-rule="evenodd">
        <g id="ic24-unlock-copy" transform="translate(3.000000, 0.000000)" fill="currentColor" fill-rule="nonzero">
            <path d="M9.49001245,1 C12.1430776,1.51568617 12.8818181,3.12230671 12.9953805,5.78311038 L13,6 L13,9 C14.6568542,9 16,10.3431458 16,12 L16,18 C16,19.6568542 14.6568542,21 13,21 L3,21 C1.34314575,21 0,19.6568542 0,18 L0,12 C0,10.3431458 1.34314575,9 3,9 L11,9 L11,6 C11,4.40231912 9.75108,3.09633912 8.1762728,3.00509269 L8,3 C7.13189597,3 6.86750409,2.93184196 6.28936348,3.28230293 C5.86060413,3.542211 6.28377526,3.9775342 5.28377526,3.9775342 C4.28377526,3.9775342 4.32000397,3.5513304 4.32000397,3 C4.32000397,1.85181897 4.49428105,1.89284137 4.88998263,1.46019451 C5.28568421,1.02754765 8.04782929,0.719677478 9.49001245,1 Z M13,11 L3,11 C2.44771525,11 2,11.4477153 2,12 L2,18 C2,18.5522847 2.44771525,19 3,19 L13,19 C13.5522847,19 14,18.5522847 14,18 L14,12 C14,11.4477153 13.5522847,11 13,11 Z" id="Shape"></path>
        </g>
    </g>
</svg>